[center][img]http://img560.imageshack.us/img560/1455/iamnumsns.jpg[/img]





Format                           : AVI
Format/Info                      : Audio Video Interleave
File size                        : 694 MiB
Duration                         : 1h 48mn
Overall bit rate                 : 893 Kbps
Writing library                  : MPlayer

Video
ID                               : 0
Format                           : MPEG-4 Visual
Format profile                   : Advanced Simple@L5
Format settings, BVOP            : Yes
Format settings, QPel            : No
Format settings, GMC             : No warppoints
Format settings, Matrix          : Default (MPEG)
Codec ID                         : XVID
Codec ID/Hint                    : XviD
Duration                         : 1h 48mn
Bit rate                         : 754 Kbps
Width                            : 624 pixels
Height                           : 336 pixels
Display aspect ratio             : 1.857
Frame rate                       : 23.976 fps
Color space                      : YUV
Chroma subsampling               : 4:2:0
Bit depth                        : 8 bits
Scan type                        : Progressive
Bits/(Pixel*Frame)               : 0.150
Stream size                      : 586 MiB (84%)
Writing library                  : XviD 1.2.1 (UTC 2008-12-04)

Audio
ID                               : 1
Format                           : MPEG Audio
Format version                   : Version 1
Format profile                   : Layer 3
Mode                             : Joint stereo
Mode extension                   : MS Stereo
Codec ID                         : 55
Codec ID/Hint                    : MP3
Duration                         : 1h 48mn
Bit rate mode                    : Variable
Bit rate                         : 128 Kbps
Channel(s)                       : 2 channels
Sampling rate                    : 48.0 KHz
Stream size                      : 98.5 MiB (14%)
Alignment                        : Aligned on interleaves
Interleave, duration             : 24 ms (0.58 video frame)
Interleave, preload duration     : 127 ms
Writing library                  : LAMEªªª0




[url]http://www.imdb.com/title/tt1464540/[/url]






Users: 6.3/10 (12,900 votes) 138 reviews | Critics: 198 reviews Metascore: 36/100 (based on 30 reviews from Metacritic.com)

John is an extraordinary teen, masking his true identity and passing as a typical high school student to elude a deadly enemy seeking to destroy him. Three like him have already been killed ... he is Number Four.
Director:
D.J. Caruso
Writers:
Alfred Gough (screenplay), Miles Millar (screenplay), and 3 more credits »
Stars:
Alex Pettyfer, Timothy Olyphant and Dianna Agro







[img]http://img35.imageshack.us/img35/7950/vlcsnap2011050417h59m29.png[/img]

[img]http://img6.imageshack.us/img6/2450/vlcsnap2011050417h59m19.png[/img]

[img]http://img706.imageshack.us/img706/4937/vlcsnap2011050417h59m58.png[/img]



Straight forward encode and sync fix of Defaceds release cant claim much credit on this one but least the syncs sorted.............Enjoy !



Greetz to Imagine ,Flawl3ss,DiLLoN,BDK,NOiR,TOXiCiNK,THC,Ez,Rx,Boobyblue,TaRiQ786,LKRG





[img]http://img411.imageshack.us/img411/6898/sig1n.jpg[/img]




